<svg width="1440" height="333" viewBox="0 0 1440 333" fill="none" xmlns="http://www.w3.org/2000/svg">
<g opacity="0.5" filter="url(#filter0_bd_119_3)">
<path d="M-22.5503 10.4541C-34.6846 59.4606 -197.065 181.667 215.5 220.5C628.065 259.333 831 26.5 1080 79C1329 131.5 1411.44 207.681 1452.27 180.978L1443.67 333C875.025 333 556.208 333 -12.4384 333C-12.4384 333 -10.416 -38.5524 -22.5503 10.4541Z" fill="#257157"/>
</g>
<path d="M0 152C215.5 222 438.144 68.5818 652 139.5C865.856 210.418 1295.49 217.767 1440 43.9999V333H0V152Z" fill="#23785B"/>
<g style="mix-blend-mode:lighten">
<path d="M-158.5 19.0001C-158.5 19.0001 507 279.5 883.5 130C1260 -19.5 1440 130 1440 130V333H0L-158.5 19.0001Z" fill="#257157" fill-opacity="0.9"/>
<path d="M-158.5 19.0001L-156.677 14.3441L-168.858 9.5763L-162.964 21.2532L-4.46358 335.253L-3.07701 338H0H1440H1445V333V130V127.653L1443.19 126.154L1440 130C1443.19 126.154 1443.19 126.151 1443.19 126.147L1443.17 126.137L1443.14 126.108C1443.11 126.083 1443.07 126.05 1443.02 126.008C1442.91 125.924 1442.77 125.805 1442.57 125.653C1442.19 125.349 1441.63 124.913 1440.89 124.359C1439.41 123.249 1437.22 121.665 1434.32 119.716C1428.51 115.819 1419.84 110.463 1408.28 104.528C1385.15 92.6582 1350.45 78.4798 1303.93 69.0374C1210.84 50.1417 1070.73 50.274 881.655 125.353C694.917 199.502 435.736 172.098 222.375 125.677C115.858 102.502 21.0685 74.66 -47.0939 52.61C-81.1717 41.5861 -108.586 32.0127 -127.472 25.1983C-136.915 21.7911 -144.226 19.074 -149.171 17.2103C-151.644 16.2785 -153.525 15.5602 -154.786 15.0756C-155.416 14.8334 -155.891 14.6496 -156.208 14.5268C-156.366 14.4654 -156.485 14.4193 -156.563 14.3887L-156.651 14.3546L-156.672 14.3464C-156.676 14.3448 -156.677 14.3441 -158.5 19.0001Z" stroke="#3B7D6B" stroke-opacity="0.2" stroke-width="10"/>
</g>
<defs>
<filter id="filter0_bd_119_3" x="-70.124" y="0" width="1528.39" height="341" filterUnits="userSpaceOnUse" color-interpolation-filters="sRGB">
<feFlood flood-opacity="0" result="BackgroundImageFix"/>
<feGaussianBlur in="BackgroundImage" stdDeviation="3"/>
<feComposite in2="SourceAlpha" operator="in" result="effect1_backgroundBlur_119_3"/>
<feColorMatrix in="SourceAlpha" type="matrix" values="0 0 0 0 0 0 0 0 0 0 0 0 0 0 0 0 0 0 127 0" result="hardAlpha"/>
<feOffset dy="4"/>
<feGaussianBlur stdDeviation="2"/>
<feComposite in2="hardAlpha" operator="out"/>
<feColorMatrix type="matrix" values="0 0 0 0 0 0 0 0 0 0 0 0 0 0 0 0 0 0 0.25 0"/>
<feBlend mode="normal" in2="effect1_backgroundBlur_119_3" result="effect2_dropShadow_119_3"/>
<feBlend mode="normal" in="SourceGraphic" in2="effect2_dropShadow_119_3" result="shape"/>
</filter>
</defs>
</svg>
